<svg width="43" height="40" viewBox="0 0 43 40" fill="none" xmlns="http://www.w3.org/2000/svg">
<path d="M34.035 8.80826C33.0207 8.44062 31.8299 8.02798 30.6587 7.57531C30.3795 7.45284 30.1283 7.27226 29.9212 7.0451C29.829 6.96815 29.7591 6.86695 29.7191 6.75242C29.679 6.63789 29.6704 6.51438 29.6941 6.39521C29.7178 6.27604 29.7729 6.16573 29.8536 6.0762C29.9342 5.98667 30.0372 5.92131 30.1516 5.88717C30.4478 5.75927 30.7638 5.68561 31.0851 5.66959C33.6227 5.56016 36.1435 6.13828 38.3914 7.34522C38.6088 7.46769 38.8132 7.61268 39.0015 7.77788C39.1388 7.86767 39.2458 7.99831 39.308 8.15218C39.3703 8.30604 39.3847 8.47569 39.3494 8.6382C39.3007 8.79893 39.2033 8.93977 39.0712 9.04043C38.9392 9.1411 38.7792 9.1964 38.6144 9.19841C38.2549 9.26527 37.8886 9.28627 37.5241 9.26093C36.4313 9.13838 35.3312 8.97832 34.035 8.80826ZM38.6021 8.3731C36.0623 7.15946 33.294 6.52535 30.4897 6.5149C31.5702 7.74537 36.7817 9.09587 38.6021 8.3731Z" fill="#C4934C"/>
<path d="M39.9399 26.5949C39.8668 26.4869 39.7756 26.3929 39.6704 26.3173C39.5881 26.2774 39.5121 26.2251 39.445 26.1622C39.347 26.0997 39.2441 26.0347 39.1412 25.9597L39.053 25.9171C38.7126 25.7817 38.3523 25.7056 37.9872 25.692L37.2962 25.6721H37.2178C37.1198 25.6721 37.012 25.6721 36.8944 25.6721C36.5612 25.6721 36.1593 25.652 35.6693 25.617H35.3973L34.5765 24.1515L34.5643 24.1265C34.3977 23.8589 34.2262 23.5588 34.0473 23.2461C33.6537 22.5098 33.2022 21.8072 32.6973 21.1453C31.6119 19.8098 30.2741 19.0921 28.4928 20.6001L28.4095 20.6852C26.9125 22.6084 28.0542 24.219 29.1666 25.7846L29.3014 25.9772C29.4508 26.2097 29.4018 26.0597 29.2769 26.4048L28.4022 28.9933C24.1707 38.1767 20.5788 39.8974 17.1511 38.2468C14.4412 36.9488 11.7117 33.605 8.85974 30.1087C7.14464 27.9979 5.37073 25.2394 3.08719 23.7013C4.53982 23.4446 6.02275 23.4201 7.48276 23.6288C8.49747 23.778 9.49874 24.0106 10.4768 24.324H10.5013L12.7579 24.9093L12.8976 24.9268V24.9468C18.7388 26.0097 22.9089 24.5916 25.5845 21.9757L25.609 22.0032C25.9006 21.7331 26.2093 21.4305 26.5229 21.1203C27.6745 19.9924 28.8922 18.7945 30.3157 18.2643C30.6465 18.2042 30.9724 18.1442 31.2958 18.0942C31.5464 18.9801 32.1198 19.7345 32.8982 20.2025C33.0903 20.3048 33.3038 20.3583 33.5205 20.3583C33.7372 20.3583 33.9507 20.3048 34.1429 20.2025C34.492 20.0084 34.7806 19.7181 34.9759 19.3647C35.491 18.3839 35.7309 17.277 35.6693 16.166L35.7624 14.833V14.813C35.8016 13.51 35.5174 12.5121 35.0127 11.8118C34.66 11.3049 34.1482 10.936 33.5622 10.7665C32.9794 10.6058 32.3626 10.6294 31.7932 10.834C30.9038 11.1316 30.0021 11.8344 29.272 12.9248C29.3058 11.6458 29.1806 10.3677 28.8995 9.12083C27.8754 4.57913 24.7955 0.687677 20.0324 0.014925C20.0227 0.0128327 20.0127 0.0128327 20.003 0.014925C19.7985 -0.0144227 19.5921 -0.0269661 19.3856 -0.0225875C19.1816 -0.0167475 18.9784 0.00583105 18.778 0.0449351C17.7452 0.241851 16.8279 0.840933 16.22 1.71556C14.9949 3.44621 15.017 5.80459 15.5462 8.14047C16.0534 10.3913 17.0163 12.6097 17.7954 14.1977C17.8616 14.3453 17.9106 14.4478 17.9596 14.5504C18.2267 15.1156 18.5011 15.6933 18.332 16.2135C18.2555 16.2512 18.172 16.2717 18.087 16.2735C17.352 16.3085 16.3719 15.8134 15.4801 15.3532C15.0303 15.1105 14.5672 14.8942 14.0933 14.7054L14.0369 14.6854C13.6415 14.5537 13.2195 14.5287 12.8118 14.6129C12.4417 14.7347 12.0981 14.9283 11.7999 15.1831C11.5417 15.4064 11.3519 15.7008 11.2533 16.0312C11.1547 16.3616 11.1513 16.714 11.2437 17.0463C11.4265 17.7135 11.7492 18.3322 12.1895 18.8595C13.1255 20.0724 14.5588 21.2729 15.4825 21.9707C16.4062 22.6684 16.492 23.0336 16.2176 23.1986C15.6271 23.5438 14.4461 23.6763 13.689 23.7363H12.9539L10.766 23.1661C9.73812 22.8415 8.6871 22.599 7.62242 22.4408C5.49569 22.1407 4.02805 22.3308 1.97482 22.6709L1.82291 22.7084C1.20792 22.8085 0.597833 22.9835 -0.0245056 23.1261L1.51664 23.9789C1.94102 24.243 2.35006 24.5319 2.74172 24.8442C4.53278 26.6199 6.27238 28.7532 7.96789 30.8315C10.9081 34.4228 13.7012 37.8566 16.6537 39.2721C20.7038 41.2129 24.8249 39.4347 29.4386 29.4109L29.4631 29.3534L30.2814 26.9275L30.7127 27.1376L31.7515 27.6378L32.5233 28.0529C32.8002 28.188 33.0868 28.3205 33.3809 28.4431C33.4642 28.4681 33.6259 28.5456 33.964 28.6732C34.0865 28.7157 34.209 28.7607 34.3291 28.7982C34.5349 28.8708 34.7873 28.9533 35.0788 29.0333C35.194 29.0633 35.3238 29.0958 35.439 29.1233L35.7551 29.1984C36.2651 29.2932 36.7827 29.3393 37.3011 29.3359C37.4334 29.3359 37.5682 29.3359 37.7078 29.3359C38.007 29.3042 38.3035 29.2498 38.5948 29.1734C39.043 29.0782 39.4553 28.8543 39.7831 28.5281C40.0343 28.2663 40.1818 27.9189 40.1972 27.5527C40.2006 27.2162 40.1078 26.8859 39.9301 26.6024L39.9399 26.5949ZM34.0596 19.0121C33.9765 19.1764 33.8522 19.3154 33.6994 19.4147C33.6614 19.4343 33.6194 19.4445 33.5769 19.4445C33.5343 19.4445 33.4924 19.4343 33.4544 19.4147C33.1775 19.2771 32.8026 18.6519 32.4278 17.9141L32.3102 17.3539L32.2881 17.2564C33.1972 16.6888 33.9874 15.9434 34.6133 15.0631C34.7039 16.1285 34.7775 17.8866 34.0571 19.0121H34.0596ZM29.6983 14.3053C30.3402 13.1624 31.0287 12.167 32.1484 11.7843C32.5037 11.656 32.8881 11.6377 33.2535 11.7318C33.6171 11.8404 33.9373 12.0647 34.1674 12.3721C34.3442 12.6328 34.4791 12.9207 34.5667 13.2249C33.6136 15.0431 32.6507 15.9759 30.7421 16.7912C29.8894 17.2639 28.9975 17.5415 28.1767 18.1342C28.7329 16.8487 29.0809 15.5808 29.6958 14.3053H29.6983ZM16.2004 21.0753C15.3306 20.4201 13.9953 19.2972 13.123 18.1792C12.7884 17.7882 12.538 17.3298 12.388 16.8337C12.3473 16.7022 12.3446 16.5615 12.3802 16.4284C12.4159 16.2953 12.4883 16.1756 12.5889 16.0835C12.7583 15.9411 12.953 15.8333 13.1622 15.7658C13.3653 15.7359 13.5725 15.7618 13.7625 15.8409C14.1202 15.9784 14.5515 16.1985 14.9998 16.4286C16.0436 16.9613 17.1756 17.544 18.2169 17.469C18.2365 17.469 18.2585 17.469 18.2169 17.469C18.5425 17.4277 18.8531 17.3048 19.121 17.1113C19.195 17.0644 19.2531 16.9955 19.2876 16.9138C19.8266 15.8609 19.4003 14.963 18.9838 14.0802C18.9225 13.9501 18.8588 13.8176 18.8221 13.7351V13.7201C18.087 12.187 17.1339 10.0387 16.6537 7.90289C16.1882 5.85462 16.1465 3.82135 17.1437 2.40082C17.3971 2.02313 17.7352 1.71263 18.1298 1.49514C18.5244 1.27765 18.9642 1.15944 19.4126 1.15035C19.5583 1.14624 19.7041 1.15376 19.8487 1.17286H19.8732C24.1168 1.76558 26.8708 5.2819 27.797 9.38844C28.1802 11.0913 28.2475 12.8523 27.9954 14.5804C27.7543 16.2927 27.1516 17.9311 26.2289 19.3822C24.4697 22.0932 21.4364 24.0314 16.9747 24.134C17.9474 23.4962 18.1213 22.5259 16.2004 21.0753ZM32.9227 26.8275L32.8075 26.9025L31.2321 26.1297L30.9699 26.0022C30.7582 25.8607 30.5647 25.6927 30.3941 25.502C30.3623 25.4645 30.3353 25.4345 30.3182 25.4094L30.2643 25.3394C30.2153 25.2719 30.1687 25.2019 30.1173 25.1343C29.2695 23.9389 28.4022 22.7084 29.294 21.493C30.3525 20.6277 31.1733 21.0903 31.8495 21.9231C32.3137 22.5351 32.7291 23.1841 33.0918 23.8639C33.2804 24.194 33.4617 24.5116 33.6357 24.7892L34.1257 25.647L32.9227 26.8275ZM38.9868 27.7578C38.673 28.0506 38.2675 28.2199 37.8426 28.2355C37.0924 28.2822 36.3396 28.2165 35.6081 28.0404C35.1474 27.9454 34.7432 27.8379 34.4663 27.7703L34.1478 27.6428L33.719 27.3927L35.0641 26.4523L36.4191 26.5023L37.2791 26.5324L38.2175 26.5799L38.2518 26.5974C38.3588 26.6563 38.4619 26.7223 38.5605 26.795C38.7226 26.9089 38.8629 27.0522 38.9746 27.2176C39.0411 27.3119 39.0786 27.4242 39.0824 27.5402C39.0787 27.6225 39.0445 27.7003 38.9868 27.7578Z" fill="#C4934C"/>
<path d="M42.6743 18.6469C42.5801 18.4018 42.4315 18.1823 42.2402 18.0057C42.0489 17.8291 41.8201 17.7002 41.5717 17.629C40.795 17.4265 40.0061 17.8641 39.4793 18.2668C38.9383 18.6787 38.5076 19.2232 38.2273 19.8499C37.9806 20.3991 37.8536 20.9964 37.8549 21.6005C37.8664 21.9017 37.9124 22.2006 37.9921 22.4909C38.0413 22.671 38.0757 22.8551 38.095 23.0411C38.0938 23.4726 37.9611 23.893 37.7152 24.244C37.4702 24.6492 37.2252 25.0593 37.0022 25.462C36.9605 25.5295 36.9213 25.5995 36.8846 25.667C36.7229 25.9497 36.5685 26.2273 36.4166 26.5074L37.2766 26.5374L38.215 26.5849L38.2493 26.6024C38.3563 26.6613 38.4595 26.7273 38.558 26.8L38.6389 26.6449C38.7696 26.4032 38.9043 26.1606 39.0432 25.9171C39.1583 25.7071 39.2882 25.4995 39.3984 25.2969C39.4401 25.2269 39.4793 25.1569 39.521 25.0818C39.6472 24.8156 39.8209 24.5756 40.033 24.3741C40.2377 24.2198 40.4522 24.0794 40.675 23.9539C41.0027 23.7749 41.3122 23.5629 41.5987 23.3212C42.417 22.5909 42.8532 21.5705 42.9218 20.2125C42.9665 19.6778 42.8815 19.1401 42.6743 18.6469ZM41.8388 20.1475C41.7824 21.2079 41.4811 21.9482 40.8857 22.4784C40.6511 22.6691 40.3992 22.8366 40.1335 22.9785C39.8669 23.1271 39.6107 23.2942 39.3666 23.4787C39.2723 23.5543 39.1846 23.6379 39.1044 23.7288C39.1695 23.4744 39.1943 23.211 39.1779 22.9485C39.1555 22.695 39.1112 22.4439 39.0456 22.1982C38.9884 21.9918 38.9531 21.7797 38.9403 21.5655C38.9369 21.1202 39.0298 20.6796 39.2122 20.275C39.419 19.8203 39.734 19.4256 40.1286 19.1271C40.4216 18.8677 40.7846 18.7047 41.1699 18.6594C41.2152 18.6604 41.2603 18.6654 41.3047 18.6744C41.3586 18.6919 41.5325 18.7344 41.6893 19.0821C41.824 19.4219 41.8753 19.7903 41.8388 20.155V20.1475ZM35.6056 28.0404L35.4537 28.338C35.3312 28.5881 35.2087 28.8382 35.1009 29.0883C35.0592 29.1784 35.0176 29.2684 34.9784 29.3584C34.8167 29.7086 34.6525 30.0687 34.4883 30.4088C34.102 31.134 33.7552 31.8804 33.4495 32.6447C33.3245 32.9773 33.1506 33.6125 33.3956 34.1602C33.4687 34.314 33.5715 34.4511 33.6978 34.5632C33.8241 34.6754 33.9713 34.7604 34.1306 34.813C34.2422 34.8503 34.3587 34.8697 34.4761 34.8705C34.6476 34.8725 34.8165 34.8285 34.9661 34.7429C35.1508 34.6298 35.2996 34.4649 35.3949 34.2678C35.7903 33.4787 36.1246 32.6592 36.3946 31.8168C36.5612 31.3392 36.7204 30.8865 36.8993 30.4463C37.0496 30.0812 37.199 29.7277 37.3477 29.3859C37.5167 28.9908 37.6907 28.6107 37.8622 28.2455C37.1042 28.2912 36.3438 28.2221 35.6056 28.0404ZM35.8751 30.0087C35.6865 30.4763 35.515 30.964 35.3508 31.4367C35.0995 32.2236 34.7891 32.9895 34.4222 33.7276C34.4047 33.7167 34.3897 33.7023 34.3781 33.6851C34.3308 33.4639 34.3585 33.2329 34.4565 33.0298C34.7446 32.3041 35.0717 31.5953 35.4366 30.9065C35.6007 30.5839 35.7526 30.2538 35.8996 29.9311C35.8931 29.9575 35.8849 29.9834 35.8751 30.0087Z" fill="#C4934C"/>
</svg>
