<svg width="156" height="36" viewBox="0 0 156 36" fill="none" xmlns="http://www.w3.org/2000/svg">
<path d="M42.2502 21.4043C41.9709 21.4043 41.944 21.5518 41.8043 21.6168C39.1826 23.465 37.8571 22.007 37.0216 19.5936L37.7567 19.1934C40.4935 18.3856 40.7409 14.3891 37.5876 13.9215C37.4641 13.9027 37.3386 13.9027 37.2152 13.9215C36.7426 13.9717 36.2792 14.0887 35.8382 14.2691C34.3411 14.8743 34.0569 17.4003 34.1231 18.8608C34.1402 19.0765 34.2185 19.2825 34.3485 19.4535L34.4587 19.5886L34.547 20.3089C35.2306 25.8559 40.0917 24.8906 42.3115 22.5822C42.4787 22.4127 42.609 22.209 42.6937 21.9845C42.721 21.9154 42.7301 21.8401 42.7199 21.7663C42.7098 21.6924 42.6808 21.6227 42.6358 21.5639C42.5909 21.5051 42.5316 21.4594 42.464 21.4314C42.3963 21.4034 42.3226 21.394 42.2502 21.4043ZM36.4826 17.7529C36.2645 17.1777 36.5267 16.3699 36.8109 15.8497C36.9898 15.5271 37.1392 15.2845 37.492 15.2795C37.7686 15.2527 38.045 15.333 38.2663 15.5045C38.3327 15.5532 38.3831 15.6212 38.4108 15.6996C38.9401 17.0201 38.3618 17.7179 37.3181 18.153L36.7276 18.4031L36.4826 17.7529ZM50.1642 15.6596H50.2475C50.2998 15.8474 50.4017 16.0167 50.5422 16.1491C50.6827 16.2815 50.8563 16.3717 51.0438 16.4099C52.1072 16.66 51.872 15.5846 51.6588 14.9794C49.8065 10.4352 46.1337 16.61 47.7582 19.231C48.0032 19.6336 48.334 19.9812 48.6206 20.3589L50.3186 22.0195C51.5437 23.8977 48.9931 26.3161 47.817 27.5466C47.3858 27.9617 44.0094 31.8682 46.9619 31.0229L47.7582 29.9099C49.341 26.6362 55.3022 24.1953 51.7421 20.714C49.4512 18.4607 48.7015 18.2581 50.1716 15.6596H50.1642ZM45.308 26.4637C45.3925 26.5996 45.5221 26.6999 45.6731 26.7463C46.1411 26.8388 46.4547 26.3511 46.2342 25.7459C45.0091 22.1746 44.4676 16.4924 45.7638 13.2412C46.6458 11.0129 46.0896 6.98886 46.5821 4.39539C46.8443 3.03238 45.2615 2.50968 44.426 3.18243C44.2929 3.29687 44.1978 3.45066 44.154 3.62259C44.1296 3.70346 44.1204 3.78833 44.1271 3.87268C44.3941 10.04 42.3948 15.8022 43.2376 21.8794C43.2544 22.0019 43.2822 22.1224 43.321 22.2396C43.9016 23.8652 44.5215 24.9306 45.3154 26.4637H45.308ZM33.3219 20.9616C33.3922 20.8474 33.4319 20.7163 33.437 20.5815C33.4395 20.5189 33.425 20.4569 33.3949 20.4023C33.3649 20.3478 33.3206 20.3028 33.2669 20.2724C33.2133 20.2421 33.1525 20.2275 33.0912 20.2304C33.03 20.2333 32.9707 20.2536 32.9201 20.2888L32.0723 20.829L32.0478 20.794L32.2193 18.6232L32.3516 18.2881C32.3814 18.2179 32.3956 18.1419 32.3933 18.0655C32.3933 17.6128 32.3933 17.2952 31.9645 17.1452C31.9048 17.1171 31.8378 17.1092 31.7734 17.1227C31.1388 17.2352 30.8913 17.2002 30.7027 17.9005L30.5312 18.4682C30.1342 19.6336 30.1391 19.3885 29.3698 19.8762C27.7796 21.4743 28.8528 17.8904 29.8157 17.2127L30.122 17.2502C30.2181 17.257 30.3143 17.2374 30.4004 17.1934C30.4866 17.1495 30.5597 17.0827 30.612 17.0001C30.6697 16.9064 30.7049 16.8002 30.7149 16.69C30.8105 16.2723 30.982 14.9869 30.9158 14.7293C30.8497 14.4717 30.8546 14.3691 30.6831 14.3391C29.5486 14.3391 28.0663 16.1973 27.5322 17.5153C26.998 18.8333 26.6158 19.8287 26.9809 21.5393C27.2676 22.8973 28.3383 22.8548 29.3698 21.7569L29.7912 21.3117L29.9333 21.2742V22.4447L29.1076 23.8902C28.7144 24.2197 28.3774 24.6136 28.1104 25.0556C28.0218 25.1846 27.9455 25.322 27.8825 25.4658L27.7208 25.8309C27.1303 27.349 26.5595 28.6045 26.116 30.065C25.3809 33.6514 27.1573 37.3552 29.7912 33.8989C30.8497 32.5084 31.3642 31.7757 31.3642 29.7349V29.1697C31.3471 27.369 31.7023 25.8534 31.3642 24.1003L31.5357 22.9023L31.7097 22.152C32.6946 21.7344 32.9054 21.8269 33.3292 20.9541L33.3219 20.9616ZM28.9827 32.9836C28.8913 32.9916 28.7998 32.9706 28.7205 32.9236C27.5297 32.3084 27.6253 31.8507 27.6253 30.4426C27.6253 28.9846 27.8213 27.7366 28.5637 26.3986L29.1003 25.4283L29.8353 24.633L29.8941 25.1332C30.1783 27.4065 31.5308 32.9761 28.99 32.9761L28.9827 32.9836ZM17.3077 20.3964C13.951 21.5593 13.3066 11.4505 14.4557 11.5331C15.2332 11.3406 16.0327 11.2565 16.8324 11.283C17.3738 11.2279 17.538 10.9528 17.4547 10.4226C17.3714 9.89244 16.7001 9.96247 16.21 10.0125L13.8701 10.07L13.6962 9.99748L13.6325 9.28972V7.80667C13.4953 5.57833 12.6353 3.68262 11.5327 1.62935C11.3465 1.30923 10.5061 -1.02415 9.3937 1.27421C8.64395 2.82229 8.32054 4.7105 7.78885 6.35862L7.46788 7.0839C6.05414 11.3755 4.47379 15.422 2.92039 19.8812C2.06284 21.8819 -2.54834 30.3851 1.92319 30.0075C2.38872 29.9675 2.82729 29.2822 2.93755 28.817C3.751 25.4133 4.75801 21.4368 5.4563 18.8383C6.1546 16.2398 6.90189 14.8493 7.32577 12.8686L7.39927 12.681C7.42132 12.646 7.47768 12.621 7.49973 12.586C8.50919 12.4284 10.3468 12.1408 11.2926 12.3209C11.986 13.1262 12.0619 13.4863 12.1183 14.8218C12.1746 16.1573 12.1722 18.6933 13.0126 20.2463C13.853 21.7994 15.007 22.5722 16.6878 21.7294C17.1264 21.5093 17.6238 21.2842 17.7267 20.789C17.7977 20.4564 17.6017 20.4014 17.315 20.3889L17.3077 20.3964ZM11.7556 10.1425C11.6772 10.6427 11.3636 10.5427 10.8711 10.5752L8.89142 10.8478C8.34749 10.9003 8.08287 11.0429 8.23968 10.4276C8.75421 9.57483 8.86937 8.71701 9.25894 7.77416C9.68037 6.75127 9.85433 5.61834 10.1679 4.46041L10.3542 3.76765L10.5281 3.6301H10.6457C11.7507 6.06601 12.1697 7.50404 11.763 10.1225L11.7556 10.1425ZM147.46 21.3517C147.178 21.3517 147.151 21.4993 147.011 21.5643C144.39 23.415 143.067 21.9545 142.229 19.5411L142.964 19.1409C145.701 18.3331 145.948 14.3391 142.797 13.8689C142.674 13.8502 142.548 13.8502 142.425 13.8689C141.951 13.917 141.487 14.0332 141.045 14.2141C139.548 14.8218 139.264 17.3452 139.33 18.8058C139.345 19.0122 139.417 19.2099 139.538 19.376L139.524 19.391C139.367 19.5636 139.244 19.6411 139.075 19.8162C136.304 22.7348 135.78 17.6679 135.052 15.7446C134.995 15.6532 134.914 15.579 134.819 15.5296C133.496 14.9493 133.389 15.467 132.369 16.685L132.11 17.5128H132.051L132.222 15.9297L133.879 14.2791C136.505 10.5277 138.509 5.2407 136.147 0.874061C136.095 0.773266 136.024 0.683368 135.939 0.608962C135.843 0.503197 135.74 0.404577 135.63 0.313854C134.805 -0.241355 134.508 -0.0938031 133.839 1.02912L133.55 1.71188C131.862 5.69337 131.073 10.0525 130.684 14.3466L130.392 16.1748L129.931 17.1001L128.951 17.8079C128.867 17.8962 128.79 17.9916 128.721 18.093C128.459 18.6582 129.353 18.4382 129.601 18.3181L130.005 18.2106L129.713 20.5915L128.608 21.4368C128.341 21.674 128.03 21.8545 127.693 21.9678C127.357 22.0812 127.001 22.1251 126.648 22.097C124.916 22.0745 124.198 21.9095 123.135 20.834C121.709 19.411 122.324 14.9919 124.943 15.9047C125.03 15.9429 125.106 16.0053 125.161 16.0848C125.305 16.3789 125.385 16.7017 125.394 17.0305C125.402 17.3594 125.341 17.6862 125.212 17.988C125.186 18.0208 125.154 18.0477 125.117 18.067C125.081 18.0864 125.04 18.0978 124.999 18.1005C124.909 18.0805 124.884 18.0705 124.84 17.9505L124.803 17.7004L124.713 17.3552L124.622 17.1302C124.362 16.4849 123.698 16.7 123.512 17.2752L123.323 17.8504C122.85 19.1534 124.247 20.9916 125.69 19.1709L125.977 18.8083C126.071 18.648 126.152 18.4808 126.222 18.3081C126.55 17.3077 126.736 16.5574 126.3 15.4895C125.698 14.2241 123.816 13.8089 122.664 14.7993C120.319 17.4678 119.619 22.9223 124.257 23.8027C125.668 24.0728 127.131 23.6501 128.376 22.9398L129.414 22.147L129.468 22.0845V22.2196C129.597 22.4783 129.821 22.675 130.091 22.7673C130.357 22.8587 130.636 22.9044 130.916 22.9023C131.052 22.8896 131.183 22.8478 131.301 22.7798C131.404 22.7373 131.468 22.6247 131.514 22.4472C131.759 20.9616 131.887 19.9862 132.725 18.7408L133.864 17.5103L133.903 17.5453C133.903 19.296 134.104 21.4893 135.733 22.5197C137.632 23.7201 138.289 23.1874 139.323 21.2192L139.681 20.5339L139.779 20.3164C140.492 25.7884 145.323 24.818 147.533 22.5247C147.7 22.3546 147.831 22.1511 147.918 21.927C147.944 21.8568 147.952 21.7807 147.94 21.7065C147.929 21.6322 147.898 21.5624 147.852 21.5041C147.805 21.4458 147.745 21.401 147.676 21.3742C147.607 21.3475 147.532 21.3397 147.46 21.3517ZM132.433 13.7764C132.551 12.4134 132.604 11.1079 132.827 9.75239C133.317 6.81129 134.109 4.28034 134.829 1.47428C134.859 1.40926 134.881 1.30422 134.971 1.36675C135.085 1.46641 135.189 1.57789 135.28 1.69938C136.677 3.52756 135.841 7.70162 135.358 9.55981C134.79 11.1096 133.983 12.5573 132.97 13.8489L132.379 14.4291L132.433 13.7764ZM141.697 17.7004C141.479 17.1252 141.741 16.3174 142.028 15.7997C142.204 15.4745 142.354 15.2345 142.706 15.2295C142.984 15.2018 143.261 15.2812 143.483 15.452C143.549 15.5019 143.598 15.5707 143.625 15.6496C144.154 16.9701 143.576 17.6679 142.533 18.103L141.942 18.3531L141.697 17.7004ZM111.173 7.69663C111.159 7.92735 111.182 8.15888 111.242 8.38188C111.299 8.5285 111.401 8.65222 111.533 8.73451C111.583 8.77367 111.642 8.80056 111.704 8.81314C111.766 8.82571 111.83 8.82363 111.891 8.80704C112.082 8.72451 112.151 8.4294 112.354 8.38188C112.636 8.31436 112.93 8.48942 113.219 8.48942C113.365 8.46334 113.509 8.42742 113.65 8.38188C113.76 8.36438 113.873 8.40189 113.981 8.38188C114.454 8.33366 114.918 8.22268 115.363 8.05176C115.425 8.00208 115.471 7.93548 115.497 7.85974C115.523 7.78401 115.528 7.70227 115.51 7.62409C115.447 7.29674 115.329 6.9829 115.162 6.69625C115.136 6.65236 115.1 6.61526 115.058 6.58791C115.015 6.56056 114.967 6.54371 114.917 6.53869C114.797 6.52369 114.672 6.68124 114.559 6.62372C114.196 6.42364 113.964 6.0335 113.611 5.81842C113.252 5.61303 112.868 5.45822 112.469 5.35824C111.599 5.10815 111.362 6.07101 111.229 6.76627C111.218 6.98287 111.218 7.19992 111.229 7.41652C111.234 7.50156 111.173 7.59658 111.173 7.68661V7.69663ZM155.611 21.1517C155.579 21.1031 155.535 21.064 155.484 21.0381C155.432 21.0122 155.375 21.0005 155.317 21.0041C151.642 21.3667 152.774 17.2327 151.137 16.4424C151.053 16.4179 150.965 16.4119 150.878 16.4248C150.792 16.4377 150.709 16.4693 150.635 16.5174C150.501 16.6015 150.392 16.7207 150.319 16.8626C150.189 17.0701 150.206 17.6704 150.008 17.5303C149.763 17.3577 149.954 16.9176 149.964 16.6125C149.964 16.4524 150.057 16.3048 150.059 16.1448C150.059 16.0473 150.059 15.9197 149.976 15.8647C149.762 15.7688 149.541 15.6902 149.315 15.6296C149.209 15.5796 149.143 15.4545 149.033 15.417C148.918 15.3717 148.792 15.3717 148.677 15.417C147.854 15.8172 147.989 21.1467 148.239 22.3846C148.272 22.5031 148.334 22.6113 148.418 22.6998C148.495 22.811 148.601 22.8977 148.724 22.9498C149.087 22.9644 149.45 22.9459 149.809 22.8948C149.96 22.8442 150.088 22.7405 150.17 22.6022C150.219 22.5172 150.17 22.4021 150.17 22.3046C150.182 21.5543 150.118 20.7715 150.17 20.0288C150.166 19.7703 150.218 19.5143 150.322 19.2785C150.363 19.2009 150.495 19.2635 150.579 19.2785C150.662 19.2935 150.799 19.3035 150.848 19.3885C150.983 19.6136 150.981 19.9012 151.093 20.1388C151.676 21.3593 152.414 22.7523 153.933 22.8248C154.565 22.8548 155.457 22.1595 155.621 21.5318C155.667 21.4087 155.664 21.2721 155.611 21.1517ZM26.5007 21.8369C26.7163 21.5443 26.9515 21.0491 26.4174 20.794C26.2385 20.7615 26.1944 20.8165 26.0253 20.9016C24.7243 21.6819 23.2714 18.5757 23.0435 17.6354L22.8842 16.9851C22.627 15.9247 21.2451 16.2473 20.7526 17.3527L20.6938 16.4174C20.635 15.4946 20.6031 15.417 19.726 15.2194C18.3833 14.9168 18.9738 20.614 18.9738 20.9716V21.5018L19.035 22.3096C19.4295 22.9824 20.9952 23.1799 20.9952 22.1896V21.7669C20.8996 20.7665 20.8947 20.0312 21.3137 19.1159L21.4288 19.0459C21.6175 19.0459 21.7082 19.1684 21.8527 19.2234C23.2248 19.7611 22.9773 22.0545 24.4548 22.4897C25.0845 22.6747 25.4814 22.6472 25.991 22.2621C26.1769 22.1416 26.348 21.9989 26.5007 21.8369ZM93.7451 19.4285L93.2551 19.481C93.0391 19.8859 92.7409 20.2389 92.3803 20.5164L91.6453 21.0491C91.6184 21.0491 91.6282 21.0291 91.6257 20.9966C91.7262 19.9087 92.297 19.5786 92.7454 18.6507C92.7993 18.5197 92.8195 18.3768 92.8042 18.2356C92.8042 17.9079 92.6229 17.8404 92.3289 17.888L91.1161 18.078C91.0426 18.0944 90.9739 18.1277 90.9151 18.1756C90.8725 18.2127 90.8375 18.2581 90.8123 18.3092C90.787 18.3603 90.772 18.4161 90.7681 18.4732C90.6775 19.276 90.163 19.6961 89.6999 20.3764C88.122 20.5089 89.5529 18.2906 89.9449 17.3578C89.9899 17.2574 90.0117 17.1479 90.0086 17.0376C90.0129 16.9852 90.0009 16.9327 89.9743 16.8876C89.9375 16.8226 89.9081 16.81 89.8101 16.81C89.7264 16.8155 89.6439 16.8331 89.5651 16.8626L89.1731 17.0776C89.0908 17.0698 89.0077 17.0774 88.9281 17.1001L88.5385 17.2327C88.4403 17.2649 88.3546 17.3279 88.2935 17.4128C88.2162 17.5331 88.1753 17.674 88.1759 17.8179C88.1759 18.4407 87.5927 19.2284 87.2399 19.7186C87.164 19.8162 87.088 19.9437 86.968 19.9912L86.402 20.2813L86.4608 20.5715C87.5707 20.709 87.2203 19.7011 87.4604 20.9816C87.6834 22.1746 88.1195 22.4822 89.4818 21.952L89.5578 21.9245C89.5663 21.9262 89.5744 21.9297 89.5816 21.9347C89.5888 21.9397 89.595 21.9461 89.5998 21.9536C89.6046 21.961 89.6079 21.9693 89.6095 21.9781C89.6111 21.9868 89.611 21.9958 89.6092 22.0045L89.5553 22.6447C87.6516 25.0531 86.5416 26.9564 85.907 30.0775C85.5346 31.8982 87.4996 32.8811 88.8056 31.2705L89.2123 30.7703C90.9764 27.7892 90.7681 25.5983 91.1185 22.5647C91.1357 22.4396 91.1185 22.4547 91.1406 22.4096C91.1626 22.3646 91.2116 22.3471 91.2508 22.3096L92.2946 21.5143L92.5641 21.2642C93.1497 20.729 94.5242 19.351 93.7451 19.4285ZM88.2298 30.8553C88.1955 30.8978 88.1906 30.9153 88.1367 30.9403C87.8304 31.0504 87.752 31.0129 87.5144 30.7603C87.492 30.7252 87.4723 30.6884 87.4555 30.6502C86.8699 29.2022 88.0877 25.8985 89.0996 24.7655L89.3863 24.3329C89.4279 24.2703 89.4867 24.2153 89.5259 24.3003V24.3404C89.3789 26.6612 89.3716 28.9846 88.2298 30.8553ZM110.935 22.9148C110.952 22.8948 110.963 22.8702 110.966 22.844C110.97 22.8178 110.966 22.7912 110.955 22.7673C110.945 22.7111 110.923 22.6581 110.889 22.6122C110.856 22.5664 110.813 22.5291 110.763 22.5032C110.713 22.4773 110.658 22.4635 110.602 22.4629C110.546 22.4623 110.491 22.4749 110.44 22.4997L110.122 22.6372C109.524 22.3871 109.068 22.1921 108.522 21.957C108.319 21.853 108.129 21.7263 107.954 21.5793C105.913 20.0663 105.839 19.296 105.425 16.625L105.484 16.4524C105.834 15.422 106.817 14.7192 107.285 13.6388L107.633 12.8285C107.701 12.6943 107.74 12.5468 107.748 12.3959C107.762 12.1394 107.722 11.8828 107.632 11.6431C107.542 11.4034 107.402 11.186 107.223 11.0054C106.336 10.4602 105.783 11.1054 105.2 11.7256C105.097 11.8367 105.014 11.9654 104.955 12.1058L104.283 13.5363C103.597 14.9368 103.058 16.3974 102.308 17.7354L102.196 17.6629C102.37 16.1623 102.931 15.0869 102.931 13.6138C102.931 11.2154 104.401 8.677 104.891 6.39864L105.109 5.75089L105.251 5.03062C105.075 4.56019 105.035 4.04771 105.138 3.55507C104.932 2.24708 104.08 2.46216 103.337 3.03987C103.18 3.16078 103.047 3.31099 102.945 3.48254C100.841 8.79203 101.502 15.0219 99.9342 20.4414C99.8413 20.6932 99.7868 20.958 99.7725 21.2267C99.7528 21.4154 99.7528 21.6057 99.7725 21.7944C99.8925 22.5197 100.897 23.9127 101.488 22.9198C101.61 21.892 102.987 19.6286 103.404 18.6482C103.419 18.6227 103.444 18.604 103.472 18.5957C103.506 18.5957 103.531 18.6632 103.546 18.7208C104.139 20.3289 105.437 21.6018 106.645 22.6447C106.724 22.715 106.812 22.7739 106.907 22.8198C107.922 23.325 110.232 24.1178 110.935 22.9023V22.9148ZM69.5033 21.3517C66.7297 21.6243 67.5897 18.5157 66.3597 17.9205C66.2965 17.9015 66.23 17.8968 66.1649 17.9067C66.0997 17.9167 66.0374 17.941 65.9824 17.978C65.8802 18.0374 65.7956 18.1237 65.7374 18.2281C65.6394 18.3856 65.6516 18.8383 65.4924 18.7283C65.3331 18.6182 65.4507 18.2656 65.4605 18.0355C65.4605 17.918 65.5291 17.8054 65.5316 17.6854C65.5316 17.6128 65.5316 17.5153 65.4679 17.4753C65.3093 17.4031 65.1455 17.3437 64.9778 17.2977C64.8994 17.2602 64.8504 17.1677 64.7647 17.1377C64.6793 17.1053 64.5854 17.1053 64.5001 17.1377C64.1619 17.3027 64.0394 18.5757 64.0272 19.8487L63.9488 19.9862C63.4857 20.784 63.1745 21.1592 62.3292 21.6143L62.1871 21.6969C62.1643 21.7085 62.1391 21.7146 62.1136 21.7146C62.0881 21.7146 62.0629 21.7085 62.0401 21.6969C61.2169 21.3592 61.43 20.5715 61.5501 19.7962C61.7338 18.5632 62.0744 18.0605 61.974 16.8401C61.9593 16.66 61.9102 16.62 61.8367 16.59C61.6889 16.5418 61.5291 16.5489 61.3859 16.61C61.052 16.6215 60.719 16.6532 60.3887 16.705C60.3321 16.7115 60.2787 16.7349 60.2351 16.7723C60.1915 16.8097 60.1597 16.8593 60.1437 16.9151C60.1296 16.9494 60.1205 16.9856 60.1167 17.0226L60.0751 17.3452C59.8194 18.9525 59.7708 20.587 59.9305 22.2071C59.9456 22.303 59.9711 22.3969 60.0065 22.4872C61.2144 24.9006 62.9246 22.3921 63.9414 21.7369L64.0786 21.6344C64.0953 21.8858 64.1247 22.1363 64.1668 22.3846C64.1896 22.4786 64.2361 22.5648 64.3016 22.6347C64.3604 22.7173 64.44 22.7822 64.5319 22.8223C64.8045 22.833 65.0775 22.8196 65.3478 22.7823C65.462 22.7428 65.558 22.6618 65.6173 22.5547C65.6565 22.4922 65.6173 22.4071 65.6173 22.3321C65.6173 21.7669 65.5781 21.1792 65.6173 20.6215C65.6164 20.4285 65.6557 20.2376 65.7325 20.0613C65.7644 20.0062 65.8624 20.0613 65.926 20.0613C65.9898 20.0613 66.0902 20.0838 66.1294 20.1463C66.2299 20.3164 66.2274 20.5339 66.3132 20.7115C66.7542 21.6268 67.3079 22.6747 68.4497 22.7298C68.9397 22.7523 69.5964 22.2296 69.7189 21.7569C69.7502 21.6633 69.7441 21.5608 69.7017 21.4718C69.6809 21.4367 69.6518 21.4074 69.6172 21.3864C69.5826 21.3655 69.5435 21.3536 69.5033 21.3517ZM60.7587 12.2233C60.796 12.2521 60.839 12.2722 60.8847 12.2822C60.9304 12.2921 60.9778 12.2917 61.0233 12.2808C61.1679 12.2208 61.2218 12.0032 61.3712 11.9707C62.1332 11.8007 62.7556 12.1683 63.6107 11.7631C63.7111 11.7156 63.7405 11.5581 63.7258 11.448C63.6833 11.2038 63.6004 10.9687 63.4808 10.7528C63.4632 10.7209 63.4385 10.6937 63.4087 10.6733C63.3789 10.6529 63.3449 10.6398 63.3093 10.6352C62.7874 10.5627 62.8193 10.3851 62.3488 10.0825C62.0849 9.92584 61.8013 9.80638 61.506 9.72739C61.3769 9.6907 61.2405 9.6907 61.1115 9.72739C61.0293 9.76022 60.9568 9.81441 60.9014 9.8846C60.8459 9.95478 60.8094 10.0385 60.7954 10.1275C60.6411 10.6277 60.374 11.428 60.5504 11.9632C60.5914 12.0701 60.6643 12.161 60.7587 12.2233ZM119.072 20.0263C116.073 21.7619 118.715 16.5875 118.715 14.7368L118.901 14.2066C119.234 13.2662 121.726 14.1515 122.588 12.5885L122.708 12.3709C122.753 12.304 122.785 12.2295 122.804 12.1508C122.813 12.0987 122.813 12.0453 122.804 11.9932C122.79 11.8884 122.736 11.7935 122.654 11.7289C122.572 11.6643 122.468 11.6353 122.365 11.6481C122.274 11.6457 122.183 11.6682 122.103 11.7131L121.042 12.5034C120.633 12.811 119.244 13.0036 118.952 12.6585L118.893 12.5885C119.05 11.4305 119.668 9.2347 117.945 9.2347C117.629 9.2347 117.529 10.2351 117.47 10.7353C117.45 10.8769 117.441 11.0199 117.443 11.1629V11.5706V11.7732V11.8807C117.431 11.8896 117.417 11.8957 117.402 11.8987C117.387 11.9017 117.372 11.9016 117.357 11.8982C116.355 11.8232 116.154 11.7631 115.747 12.4559C115.6 12.8135 115.407 13.3387 115.716 13.6664C115.743 13.7013 115.777 13.7293 115.817 13.748C115.856 13.7667 115.9 13.7756 115.943 13.7739L116.679 13.8389V15.0019C116.318 16.291 116.086 17.6141 115.985 18.9508L115.89 19.1134C115.302 20.1263 114.909 20.614 113.834 21.1842L113.653 21.2892C113.623 21.3033 113.591 21.3106 113.558 21.3106C113.526 21.3106 113.493 21.3033 113.464 21.2892C112.437 20.8516 112.702 19.8512 112.849 18.8508C113.094 17.2852 113.515 16.645 113.388 15.0994C113.368 14.8693 113.307 14.8193 113.214 14.7768C113.026 14.7178 112.823 14.7276 112.641 14.8043C112.215 14.8171 111.791 14.858 111.371 14.9268C111.301 14.9362 111.236 14.9663 111.182 15.0134C111.128 15.0605 111.09 15.1226 111.07 15.1919C111.053 15.2351 111.041 15.2805 111.036 15.327L110.982 15.7371C110.7 17.8779 110.553 19.8087 110.798 21.917C110.818 22.0387 110.851 22.1578 110.896 22.2721C112.43 25.3382 114.606 22.1521 115.894 21.3117L115.98 21.2492C116.026 22.1128 116.167 22.9684 116.399 23.8002C116.434 23.9083 116.506 23.9996 116.602 24.0568C116.698 24.114 116.812 24.1331 116.921 24.1103C116.952 24.107 116.983 24.097 117.01 24.0811C117.038 24.0651 117.062 24.0436 117.08 24.0177L118.376 22.4096L118.781 21.8269L119.989 20.669C120.172 20.1338 119.474 19.9137 119.08 20.0263H119.072ZM85.7502 23.0874C86.0296 22.7773 86.9337 21.3367 86.2403 21.2017L86.1104 21.2267C85.9781 21.4343 85.9854 21.6369 85.8654 21.8394C85.7453 22.042 85.6914 22.2221 85.542 21.9345C85.1279 20.8991 85.1279 19.5411 84.0547 18.8333C83.9796 18.7908 83.8955 18.7677 83.8097 18.7658C83.7831 18.7595 83.7555 18.7595 83.7289 18.7658C82.6777 18.9808 82.3739 21.0166 82.1363 21.8469C82.1216 21.932 82.0505 22.082 81.9893 21.9145L81.6732 20.7215C81.5801 20.3739 81.4282 20.0888 81.3498 19.7386C80.6882 16.9601 79.3676 19.2384 78.7551 21.3617C78.7338 21.4604 78.6938 21.5539 78.6374 21.6369C78.4096 21.962 78.363 21.8394 78.2209 21.4893C78.1853 21.4088 78.1575 21.3251 78.1376 21.2392C78.0991 21.0686 78.0794 20.8941 78.0788 20.719C78.0911 19.8512 78.0788 19.0884 77.5888 18.3231C77.5031 18.1936 77.3742 18.1003 77.2262 18.0605C75.7904 17.5603 74.8275 20.9591 73.943 21.9145C73.6538 22.042 72.8477 22.2046 73.2422 22.6947C73.2699 22.7286 73.3064 22.7538 73.3476 22.7673C75.0161 23.1474 75.7855 21.3717 76.2731 20.0162C76.3123 19.9162 76.4225 19.8262 76.4985 19.9662C76.638 20.2917 76.7209 20.6396 76.7435 20.9941C76.7532 21.1334 76.7753 21.2716 76.8096 21.4068C77.9073 25.6208 79.0883 22.3321 79.816 20.6565C79.914 20.5314 79.9826 20.5489 79.9948 20.709L80.1541 21.5218C80.4702 23.48 81.9941 24.3179 82.6508 22.6597C82.8076 22.2646 83.0257 21.8845 83.1555 21.4843C83.2364 21.2892 83.4005 21.1617 83.501 21.3893C83.9984 22.4121 84.5056 24.2778 85.7551 23.0874H85.7502Z" fill="#971D3D"/>
</svg>
