<svg width="203" height="40" viewBox="0 0 203 40" fill="none" xmlns="http://www.w3.org/2000/svg">
<g clip-path="url(#clip0_15_6)">
<path d="M89.5922 23.904C89.3129 23.904 89.286 24.0516 89.1463 24.1166C86.5247 25.9648 85.1991 24.5067 84.3636 22.0933L85.0987 21.6932C87.8355 20.8854 88.083 16.8889 84.9296 16.4212C84.8061 16.4025 84.6806 16.4025 84.5572 16.4212C84.0846 16.4714 83.6212 16.5884 83.1802 16.7688C81.6832 17.3741 81.3989 19.9 81.4651 21.3606C81.4822 21.5763 81.5605 21.7823 81.6905 21.9533L81.8008 22.0883L81.889 22.8086C82.5726 28.3557 87.4337 27.3903 89.6535 25.082C89.8207 24.9124 89.951 24.7087 90.0357 24.4842C90.0631 24.4151 90.0721 24.3398 90.0619 24.266C90.0518 24.1922 90.0228 24.1224 89.9779 24.0636C89.9329 24.0049 89.8737 23.9592 89.806 23.9312C89.7383 23.9031 89.6646 23.8938 89.5922 23.904ZM83.8246 20.2526C83.6065 19.6774 83.8687 18.8696 84.1529 18.3494C84.3318 18.0268 84.4812 17.7842 84.834 17.7792C85.1107 17.7524 85.387 17.8328 85.6083 18.0043C85.6747 18.0529 85.7251 18.1209 85.7529 18.1994C86.2821 19.5199 85.7039 20.2176 84.6601 20.6528L84.0696 20.9029L83.8246 20.2526ZM97.5062 18.1594H97.5895C97.6418 18.3471 97.7437 18.5165 97.8842 18.6489C98.0247 18.7813 98.1983 18.8715 98.3858 18.9096C99.4492 19.1597 99.214 18.0843 99.0008 17.4791C97.1485 12.9349 93.4757 19.1097 95.1002 21.7307C95.3452 22.1334 95.676 22.481 95.9626 22.8586L97.6606 24.5192C98.8857 26.3975 96.3351 28.8159 95.159 30.0463C94.7278 30.4615 91.3515 34.3679 94.3039 33.5226L95.1002 32.4097C96.683 29.136 102.644 26.6951 99.0841 23.2138C96.7932 20.9604 96.0435 20.7578 97.5136 18.1594H97.5062ZM92.65 28.9634C92.7345 29.0993 92.8641 29.1996 93.0151 29.246C93.4831 29.3386 93.7967 28.8509 93.5762 28.2457C92.3511 24.6743 91.8096 18.9922 93.1058 15.741C93.9878 13.5126 93.4316 9.48862 93.9241 6.89514C94.1863 5.53213 92.6035 5.00943 91.768 5.68219C91.6349 5.79662 91.5398 5.95042 91.496 6.12235C91.4716 6.20321 91.4624 6.28808 91.4691 6.37244C91.7361 12.5398 89.7368 18.3019 90.5797 24.3792C90.5964 24.5016 90.6243 24.6222 90.663 24.7393C91.2436 26.3649 91.8635 27.4303 92.6574 28.9634H92.65ZM80.6639 23.4614C80.7342 23.3471 80.7739 23.216 80.779 23.0812C80.7815 23.0187 80.767 22.9566 80.7369 22.9021C80.7069 22.8475 80.6626 22.8025 80.609 22.7722C80.5553 22.7418 80.4945 22.7273 80.4332 22.7302C80.372 22.7331 80.3127 22.7533 80.2621 22.7886L79.4143 23.3288L79.3898 23.2938L79.5613 21.123L79.6936 20.7879C79.7234 20.7177 79.7376 20.6417 79.7353 20.5653C79.7353 20.1126 79.7353 19.795 79.3065 19.6449C79.2468 19.6168 79.1798 19.609 79.1154 19.6224C78.4808 19.735 78.2333 19.6999 78.0447 20.4002L77.8732 20.9679C77.4762 22.1333 77.4811 21.8883 76.7118 22.3759C75.1217 23.974 76.1948 20.3902 77.1577 19.7125L77.464 19.75C77.5601 19.7568 77.6563 19.7372 77.7425 19.6932C77.8286 19.6492 77.9017 19.5824 77.954 19.4999C78.0117 19.4062 78.0469 19.2999 78.0569 19.1897C78.1525 18.7721 78.324 17.4866 78.2578 17.229C78.1917 16.9714 78.1966 16.8689 78.0251 16.8389C76.8907 16.8389 75.4083 18.6971 74.8742 20.0151C74.3401 21.333 73.9578 22.3284 74.3229 24.0391C74.6096 25.3971 75.6803 25.3546 76.7118 24.2567L77.1332 23.8115L77.2753 23.774V24.9444L76.4496 26.39C76.0564 26.7195 75.7194 27.1133 75.4524 27.5554C75.3638 27.6844 75.2875 27.8217 75.2246 27.9655L75.0628 28.3307C74.4724 29.8487 73.9015 31.1042 73.458 32.5648C72.723 36.1511 74.4993 39.855 77.1332 36.3987C78.1917 35.0082 78.7062 34.2754 78.7062 32.2346V31.6694C78.6891 29.8688 79.0443 28.3532 78.7062 26.6L78.8777 25.4021L79.0517 24.6518C80.0367 24.2341 80.2474 24.3267 80.6712 23.4538L80.6639 23.4614ZM76.3247 35.4834C76.2333 35.4913 76.1418 35.4704 76.0625 35.4233C74.8717 34.8081 74.9673 34.3504 74.9673 32.9424C74.9673 31.4844 75.1633 30.2364 75.9057 28.8984L76.4423 27.928L77.1773 27.1327L77.2361 27.6329C77.5203 29.9063 78.8728 35.4759 76.332 35.4759L76.3247 35.4834ZM64.6497 22.8961C61.293 24.0591 60.6486 13.9503 61.7977 14.0328C62.5753 13.8404 63.3747 13.7563 64.1744 13.7827C64.7159 13.7277 64.88 13.4526 64.7967 12.9224C64.7134 12.3922 64.0421 12.4622 63.552 12.5122L61.2121 12.5698L61.0382 12.4972L60.9745 11.7895V10.3064C60.8373 8.07809 59.9773 6.18238 58.8747 4.12911C58.6885 3.80899 57.8481 1.47561 56.7357 3.77397C55.986 5.32205 55.6625 7.21025 55.1309 8.85837L54.8099 9.58365C53.3961 13.8753 51.8158 17.9218 50.2624 22.3809C49.4049 24.3817 44.7937 32.8849 49.2652 32.5072C49.7307 32.4672 50.1693 31.782 50.2796 31.3168C51.093 27.913 52.1 23.9365 52.7983 21.3381C53.4966 18.7396 54.2439 17.3491 54.6678 15.3683L54.7413 15.1808C54.7633 15.1457 54.8197 15.1207 54.8417 15.0857C55.8512 14.9282 57.6888 14.6405 58.6346 14.8206C59.328 15.6259 59.4039 15.9861 59.4603 17.3216C59.5166 18.6571 59.5142 21.193 60.3546 22.7461C61.195 24.2992 62.349 25.072 64.0298 24.2291C64.4684 24.0091 64.9658 23.784 65.0687 23.2888C65.1397 22.9562 64.9437 22.9011 64.657 22.8886L64.6497 22.8961ZM59.0977 12.6423C59.0192 13.1425 58.7056 13.0424 58.2132 13.075L56.2334 13.3476C55.6895 13.4001 55.4249 13.5426 55.5817 12.9274C56.0962 12.0746 56.2114 11.2168 56.601 10.2739C57.0224 9.25103 57.1963 8.1181 57.51 6.96016L57.6962 6.2674L57.8701 6.12986H57.9877C59.0928 8.56577 59.5117 10.0038 59.105 12.6223L59.0977 12.6423ZM194.802 23.8515C194.52 23.8515 194.493 23.9991 194.353 24.0641C191.732 25.9148 190.409 24.4542 189.571 22.0408L190.306 21.6407C193.043 20.8329 193.29 16.8389 190.139 16.3687C190.016 16.3499 189.89 16.3499 189.767 16.3687C189.293 16.4168 188.829 16.533 188.387 16.7138C186.89 17.3216 186.606 19.845 186.672 21.3055C186.687 21.5119 186.76 21.7096 186.88 21.8758L186.866 21.8908C186.709 22.0633 186.586 22.1409 186.417 22.3159C183.646 25.2345 183.122 20.1676 182.394 18.2444C182.337 18.153 182.256 18.0788 182.161 18.0293C180.838 17.4491 180.731 17.9668 179.711 19.1848L179.452 20.0126H179.393L179.564 18.4295L181.221 16.7788C183.847 13.0274 185.851 7.74046 183.489 3.37382C183.437 3.27302 183.366 3.18312 183.281 3.10872C183.185 3.00295 183.082 2.90433 182.972 2.81361C182.147 2.2584 181.85 2.40595 181.181 3.52887L180.892 4.21163C179.204 8.19313 178.415 12.5523 178.026 16.8464L177.734 18.6746L177.273 19.5999L176.293 20.3077C176.209 20.396 176.132 20.4913 176.063 20.5928C175.801 21.158 176.695 20.9379 176.943 20.8179L177.347 20.7103L177.055 23.0912L175.95 23.9365C175.683 24.1737 175.372 24.3542 175.035 24.4676C174.699 24.5809 174.343 24.6248 173.99 24.5968C172.258 24.5743 171.54 24.4092 170.477 23.3338C169.051 21.9108 169.666 17.4916 172.285 18.4044C172.372 18.4427 172.448 18.505 172.503 18.5845C172.647 18.8787 172.727 19.2015 172.736 19.5303C172.744 19.8591 172.683 20.1859 172.554 20.4877C172.528 20.5205 172.496 20.5474 172.459 20.5668C172.423 20.5862 172.382 20.5976 172.341 20.6003C172.251 20.5803 172.226 20.5703 172.182 20.4502L172.145 20.2001L172.055 19.855L171.964 19.6299C171.704 18.9847 171.04 19.1998 170.854 19.775L170.665 20.3502C170.192 21.6532 171.589 23.4914 173.032 21.6707L173.319 21.3081C173.413 21.1478 173.494 20.9806 173.564 20.8079C173.892 19.8075 174.078 19.0572 173.642 17.9893C173.04 16.7238 171.158 16.3087 170.006 17.299C167.661 19.9675 166.961 25.4221 171.599 26.3024C173.01 26.5725 174.473 26.1499 175.718 25.4396L176.756 24.6468L176.81 24.5843V24.7193C176.939 24.9781 177.163 25.1748 177.433 25.267C177.699 25.3585 177.978 25.4041 178.258 25.4021C178.394 25.3893 178.525 25.3476 178.643 25.2795C178.746 25.237 178.81 25.1245 178.856 24.9469C179.101 23.4614 179.229 22.486 180.067 21.2405L181.206 20.0101L181.245 20.0451C181.245 21.7957 181.446 23.989 183.075 25.0194C184.974 26.2199 185.631 25.6872 186.665 23.7189L187.023 23.0337L187.121 22.8161C187.834 28.2882 192.665 27.3178 194.875 25.0244C195.042 24.8543 195.173 24.6509 195.26 24.4267C195.286 24.3565 195.294 24.2805 195.282 24.2062C195.271 24.132 195.24 24.0622 195.194 24.0039C195.147 23.9455 195.087 23.9008 195.018 23.874C194.949 23.8472 194.874 23.8395 194.802 23.8515ZM179.775 16.2762C179.893 14.9132 179.946 13.6077 180.169 12.2521C180.659 9.31104 181.451 6.78009 182.171 3.97404C182.201 3.90902 182.223 3.80398 182.313 3.8665C182.427 3.96616 182.531 4.07764 182.622 4.19913C184.019 6.02732 183.183 10.2014 182.7 12.0596C182.132 13.6093 181.325 15.0571 180.312 16.3487L179.721 16.9289L179.775 16.2762ZM189.039 20.2001C188.821 19.6249 189.083 18.8171 189.37 18.2994C189.546 17.9743 189.696 17.7342 190.048 17.7292C190.326 17.7016 190.603 17.781 190.825 17.9518C190.891 18.0016 190.94 18.0705 190.967 18.1494C191.497 19.4699 190.918 20.1676 189.875 20.6028L189.284 20.8529L189.039 20.2001ZM158.515 10.1964C158.501 10.4271 158.524 10.6586 158.584 10.8816C158.641 11.0283 158.743 11.152 158.875 11.2343C158.925 11.2734 158.984 11.3003 159.046 11.3129C159.108 11.3255 159.172 11.3234 159.233 11.3068C159.424 11.2243 159.493 10.9292 159.696 10.8816C159.978 10.8141 160.272 10.9892 160.561 10.9892C160.707 10.9631 160.851 10.9272 160.992 10.8816C161.102 10.8641 161.215 10.9016 161.323 10.8816C161.796 10.8334 162.26 10.7224 162.705 10.5515C162.767 10.5018 162.813 10.4352 162.839 10.3595C162.865 10.2838 162.87 10.202 162.852 10.1238C162.789 9.7965 162.671 9.48266 162.504 9.19601C162.478 9.15212 162.442 9.11501 162.4 9.08766C162.357 9.06031 162.309 9.04347 162.259 9.03845C162.139 9.02344 162.014 9.18099 161.901 9.12347C161.539 8.9234 161.306 8.53326 160.953 8.31818C160.594 8.11279 160.21 7.95798 159.811 7.858C158.941 7.6079 158.704 8.57077 158.571 9.26603C158.56 9.48263 158.56 9.69968 158.571 9.91628C158.576 10.0013 158.515 10.0963 158.515 10.1864V10.1964ZM202.953 23.6514C202.921 23.6029 202.877 23.5637 202.826 23.5379C202.774 23.512 202.717 23.5003 202.659 23.5039C198.984 23.8665 200.116 19.7325 198.479 18.9422C198.395 18.9176 198.307 18.9116 198.22 18.9245C198.134 18.9375 198.051 18.9691 197.977 19.0172C197.843 19.1013 197.734 19.2205 197.661 19.3623C197.531 19.5699 197.548 20.1701 197.35 20.0301C197.105 19.8575 197.296 19.4173 197.306 19.1122C197.306 18.9522 197.399 18.8046 197.401 18.6445C197.401 18.547 197.401 18.4195 197.318 18.3644C197.104 18.2686 196.883 18.19 196.657 18.1294C196.551 18.0793 196.485 17.9543 196.375 17.9168C196.26 17.8714 196.134 17.8714 196.019 17.9168C195.196 18.3169 195.331 23.6464 195.581 24.8844C195.614 25.0028 195.676 25.1111 195.76 25.1995C195.837 25.3107 195.943 25.3975 196.066 25.4496C196.429 25.4641 196.792 25.4457 197.151 25.3946C197.302 25.344 197.43 25.2402 197.512 25.102C197.561 25.0169 197.512 24.9019 197.512 24.8044C197.524 24.0541 197.46 23.2713 197.512 22.5285C197.508 22.2701 197.56 22.014 197.664 21.7782C197.705 21.7007 197.837 21.7632 197.921 21.7782C198.004 21.7932 198.141 21.8032 198.19 21.8883C198.325 22.1134 198.323 22.401 198.435 22.6386C199.018 23.859 199.756 25.252 201.275 25.3246C201.907 25.3546 202.799 24.6593 202.963 24.0316C203.009 23.9085 203.006 23.7719 202.953 23.6514ZM73.8427 24.3367C74.0583 24.0441 74.2935 23.5489 73.7594 23.2938C73.5805 23.2613 73.5364 23.3163 73.3673 23.4013C72.0663 24.1816 70.6134 21.0755 70.3855 20.1351L70.2262 19.4849C69.969 18.4245 68.5871 18.7471 68.0946 19.8525L68.0358 18.9172C67.977 17.9943 67.9452 17.9168 67.068 17.7192C65.7253 17.4166 66.3158 23.1137 66.3158 23.4714V24.0016L66.3771 24.8094C66.7715 25.4821 68.3372 25.6797 68.3372 24.6893V24.2666C68.2416 23.2663 68.2367 22.531 68.6557 21.6157L68.7709 21.5456C68.9595 21.5456 69.0502 21.6682 69.1947 21.7232C70.5668 22.2609 70.3194 24.5543 71.7968 24.9894C72.4265 25.1745 72.8234 25.147 73.333 24.7618C73.5189 24.6414 73.69 24.4986 73.8427 24.3367ZM141.087 21.9283L140.597 21.9808C140.381 22.3856 140.083 22.7386 139.722 23.0162L138.987 23.5489C138.96 23.5489 138.97 23.5289 138.968 23.4964C139.068 22.4085 139.639 22.0783 140.087 21.1505C140.141 21.0195 140.162 20.8766 140.146 20.7353C140.146 20.4077 139.965 20.3402 139.671 20.3877L138.458 20.5778C138.385 20.5941 138.316 20.6275 138.257 20.6753C138.214 20.7124 138.18 20.7579 138.154 20.809C138.129 20.8601 138.114 20.9158 138.11 20.9729C138.02 21.7757 137.505 22.1959 137.042 22.8761C135.464 23.0087 136.895 20.7904 137.287 19.8575C137.332 19.7572 137.354 19.6477 137.351 19.5374C137.355 19.4849 137.343 19.4324 137.316 19.3873C137.28 19.3223 137.25 19.3098 137.152 19.3098C137.068 19.3152 136.986 19.3329 136.907 19.3623L136.515 19.5774C136.433 19.5695 136.35 19.5772 136.27 19.5999L135.881 19.7325C135.782 19.7647 135.697 19.8277 135.636 19.9125C135.558 20.0329 135.517 20.1738 135.518 20.3177C135.518 20.9404 134.935 21.7282 134.582 22.2184C134.506 22.3159 134.43 22.4435 134.31 22.491L133.744 22.7811L133.803 23.0712C134.913 23.2088 134.562 22.2009 134.802 23.4814C135.025 24.6743 135.462 24.9819 136.824 24.4517L136.9 24.4242C136.908 24.426 136.916 24.4295 136.924 24.4345C136.931 24.4395 136.937 24.4459 136.942 24.4533C136.947 24.4608 136.95 24.4691 136.951 24.4778C136.953 24.4866 136.953 24.4955 136.951 24.5042L136.897 25.1445C134.994 27.5529 133.884 29.4561 133.249 32.5773C132.877 34.398 134.842 35.3808 136.148 33.7702L136.554 33.27C138.318 30.2889 138.11 28.0981 138.461 25.0644C138.478 24.9394 138.461 24.9544 138.483 24.9094C138.505 24.8644 138.554 24.8469 138.593 24.8094L139.637 24.0141L139.906 23.764C140.492 23.2288 141.866 21.8507 141.087 21.9283ZM135.572 33.3551C135.537 33.3976 135.533 33.4151 135.479 33.4401C135.172 33.5501 135.094 33.5126 134.856 33.26C134.834 33.225 134.814 33.1882 134.798 33.15C134.212 31.7019 135.43 28.3982 136.442 27.2653L136.728 26.8326C136.77 26.7701 136.829 26.7151 136.868 26.8001V26.8401C136.721 29.161 136.714 31.4844 135.572 33.3551ZM158.277 25.4146C158.294 25.3945 158.305 25.3699 158.308 25.3437C158.312 25.3176 158.308 25.2909 158.297 25.267C158.287 25.2109 158.265 25.1578 158.231 25.112C158.198 25.0662 158.155 25.0289 158.105 25.0029C158.055 24.977 158 24.9632 157.944 24.9626C157.888 24.962 157.833 24.9746 157.782 24.9994L157.464 25.137C156.866 24.8869 156.41 24.6918 155.864 24.4567C155.661 24.3528 155.471 24.2261 155.296 24.0791C153.255 22.566 153.181 21.7957 152.767 19.1247L152.826 18.9522C153.176 17.9218 154.159 17.219 154.627 16.1386L154.975 15.3283C155.043 15.194 155.082 15.0466 155.09 14.8956C155.104 14.6392 155.064 14.3826 154.974 14.1429C154.884 13.9031 154.744 13.6858 154.565 13.5051C153.678 12.9599 153.125 13.6052 152.542 14.2254C152.439 14.3364 152.356 14.4651 152.297 14.6055L151.625 16.0361C150.939 17.4366 150.4 18.8971 149.65 20.2351L149.538 20.1626C149.712 18.6621 150.273 17.5866 150.273 16.1136C150.273 13.7152 151.743 11.1768 152.233 8.8984L152.451 8.25065L152.593 7.53038C152.417 7.05995 152.378 6.54747 152.48 6.05482C152.274 4.74683 151.422 4.96191 150.679 5.53963C150.522 5.66053 150.389 5.81074 150.287 5.98229C148.183 11.2918 148.844 17.5216 147.276 22.9412C147.183 23.193 147.129 23.4578 147.114 23.7265C147.095 23.9152 147.095 24.1055 147.114 24.2942C147.235 25.0194 148.239 26.4125 148.83 25.4196C148.952 24.3917 150.329 22.1284 150.746 21.148C150.761 21.1225 150.786 21.1038 150.814 21.0955C150.848 21.0955 150.873 21.163 150.888 21.2205C151.481 22.8286 152.779 24.1016 153.987 25.1445C154.066 25.2148 154.155 25.2737 154.249 25.3195C155.264 25.8247 157.574 26.6175 158.277 25.4021V25.4146ZM116.845 23.8515C114.072 24.1241 114.932 21.0154 113.702 20.4202C113.639 20.4012 113.572 20.3965 113.507 20.4065C113.442 20.4164 113.379 20.4407 113.324 20.4777C113.222 20.5371 113.138 20.6235 113.079 20.7278C112.981 20.8854 112.994 21.3381 112.834 21.228C112.675 21.118 112.793 20.7653 112.803 20.5353C112.803 20.4177 112.871 20.3052 112.874 20.1851C112.874 20.1126 112.874 20.0151 112.81 19.975C112.651 19.9028 112.488 19.8435 112.32 19.7975C112.241 19.76 112.192 19.6674 112.107 19.6374C112.021 19.605 111.927 19.605 111.842 19.6374C111.504 19.8025 111.381 21.0755 111.369 22.3484L111.291 22.486C110.828 23.2838 110.517 23.6589 109.671 24.1141L109.529 24.1966C109.506 24.2083 109.481 24.2144 109.456 24.2144C109.43 24.2144 109.405 24.2083 109.382 24.1966C108.559 23.859 108.772 23.0712 108.892 22.2959C109.076 21.063 109.416 20.5603 109.316 19.3398C109.301 19.1597 109.252 19.1197 109.179 19.0897C109.031 19.0416 108.871 19.0487 108.728 19.1097C108.394 19.1213 108.061 19.153 107.731 19.2048C107.674 19.2113 107.621 19.2347 107.577 19.272C107.534 19.3094 107.502 19.3591 107.486 19.4148C107.472 19.4491 107.463 19.4854 107.459 19.5224L107.417 19.845C107.161 21.4522 107.113 23.0867 107.273 24.7068C107.288 24.8028 107.313 24.8967 107.348 24.9869C108.556 27.4003 110.267 24.8919 111.283 24.2366L111.421 24.1341C111.437 24.3856 111.467 24.636 111.509 24.8844C111.532 24.9783 111.578 25.0645 111.644 25.1345C111.702 25.2171 111.782 25.2819 111.874 25.3221C112.147 25.3327 112.42 25.3194 112.69 25.282C112.804 25.2426 112.9 25.1616 112.959 25.0545C112.999 24.9919 112.959 24.9069 112.959 24.8319C112.959 24.2667 112.92 23.6789 112.959 23.1212C112.958 22.9283 112.998 22.7373 113.075 22.561C113.106 22.506 113.204 22.561 113.268 22.561C113.332 22.561 113.432 22.5835 113.471 22.646C113.572 22.8161 113.569 23.0337 113.655 23.2113C114.096 24.1266 114.65 25.1745 115.792 25.2295C116.282 25.252 116.938 24.7293 117.061 24.2567C117.092 24.163 117.086 24.0605 117.044 23.9715C117.023 23.9364 116.994 23.9071 116.959 23.8862C116.925 23.8653 116.885 23.8533 116.845 23.8515ZM108.101 14.7231C108.138 14.7519 108.181 14.772 108.227 14.7819C108.272 14.7919 108.32 14.7914 108.365 14.7806C108.51 14.7206 108.564 14.503 108.713 14.4705C109.475 14.3004 110.098 14.668 110.953 14.2629C111.053 14.2154 111.083 14.0578 111.068 13.9478C111.025 13.7036 110.942 13.4685 110.823 13.2525C110.805 13.2207 110.78 13.1934 110.751 13.173C110.721 13.1526 110.687 13.1396 110.651 13.135C110.129 13.0625 110.161 12.8849 109.691 12.5823C109.427 12.4256 109.143 12.3061 108.848 12.2271C108.719 12.1905 108.583 12.1905 108.454 12.2271C108.371 12.26 108.299 12.3142 108.243 12.3844C108.188 12.4545 108.151 12.5383 108.137 12.6273C107.983 13.1275 107.716 13.9278 107.892 14.463C107.933 14.5698 108.006 14.6608 108.101 14.7231ZM166.414 22.526C163.415 24.2617 166.057 19.0872 166.057 17.2365L166.243 16.7063C166.576 15.766 169.068 16.6513 169.93 15.0882L170.05 14.8706C170.095 14.8038 170.127 14.7292 170.146 14.6506C170.155 14.5985 170.155 14.5451 170.146 14.493C170.132 14.3882 170.078 14.2932 169.996 14.2287C169.914 14.1641 169.81 14.1351 169.707 14.1479C169.616 14.1455 169.525 14.1679 169.445 14.2129L168.384 15.0032C167.975 15.3108 166.586 15.5034 166.294 15.1582L166.235 15.0882C166.392 13.9303 167.01 11.7345 165.287 11.7345C164.971 11.7345 164.871 12.7348 164.812 13.235C164.792 13.3766 164.783 13.5196 164.785 13.6627V14.0703V14.2729V14.3804C164.773 14.3893 164.759 14.3955 164.744 14.3985C164.729 14.4015 164.714 14.4013 164.699 14.398C163.697 14.3229 163.496 14.2629 163.089 14.9557C162.942 15.3133 162.749 15.8385 163.058 16.1661C163.085 16.2011 163.119 16.2291 163.159 16.2478C163.199 16.2664 163.242 16.2753 163.285 16.2737L164.021 16.3387V17.5016C163.66 18.7908 163.428 20.1138 163.327 21.4506L163.232 21.6132C162.644 22.626 162.252 23.1137 161.176 23.6839L160.995 23.789C160.965 23.8031 160.933 23.8103 160.9 23.8103C160.868 23.8103 160.835 23.8031 160.806 23.789C159.779 23.3513 160.044 22.3509 160.191 21.3506C160.436 19.785 160.857 19.1447 160.73 17.5992C160.71 17.3691 160.649 17.3191 160.556 17.2765C160.368 17.2176 160.165 17.2273 159.983 17.304C159.557 17.3168 159.134 17.3578 158.713 17.4266C158.643 17.436 158.578 17.4661 158.524 17.5132C158.47 17.5603 158.432 17.6223 158.412 17.6917C158.395 17.7348 158.383 17.7803 158.378 17.8267L158.324 18.2369C158.042 20.3777 157.895 22.3084 158.14 24.4167C158.16 24.5384 158.193 24.6575 158.238 24.7718C159.772 27.838 161.948 24.6518 163.236 23.8115L163.322 23.749C163.368 24.6126 163.509 25.4682 163.741 26.2999C163.776 26.408 163.848 26.4994 163.944 26.5566C164.04 26.6138 164.154 26.6328 164.263 26.61C164.294 26.6067 164.325 26.5968 164.352 26.5808C164.38 26.5649 164.404 26.5433 164.422 26.5175L165.718 24.9094L166.123 24.3267L167.331 23.1687C167.514 22.6335 166.816 22.4135 166.422 22.526H166.414ZM133.092 25.5872C133.372 25.277 134.276 23.8365 133.582 23.7015L133.452 23.7265C133.32 23.934 133.327 24.1366 133.207 24.3392C133.087 24.5418 133.033 24.7218 132.884 24.4342C132.47 23.3988 132.47 22.0408 131.397 21.3331C131.322 21.2906 131.238 21.2674 131.152 21.2655C131.125 21.2592 131.097 21.2592 131.071 21.2655C130.02 21.4806 129.716 23.5164 129.478 24.3467C129.464 24.4317 129.393 24.5818 129.331 24.4142L129.015 23.2213C128.922 22.8736 128.77 22.5885 128.692 22.2384C128.03 19.4599 126.71 21.7382 126.097 23.8615C126.076 23.9601 126.036 24.0536 125.979 24.1366C125.752 24.4617 125.705 24.3392 125.563 23.989C125.527 23.9086 125.499 23.8249 125.48 23.739C125.441 23.5683 125.421 23.3938 125.421 23.2188C125.433 22.3509 125.421 21.5882 124.931 20.8229C124.845 20.6934 124.716 20.6001 124.568 20.5603C123.132 20.0601 122.169 23.4589 121.285 24.4142C120.996 24.5418 120.19 24.7043 120.584 25.1945C120.612 25.2284 120.648 25.2535 120.69 25.267C122.358 25.6472 123.127 23.8715 123.615 22.516C123.654 22.416 123.765 22.3259 123.84 22.466C123.98 22.7915 124.063 23.1393 124.085 23.4939C124.095 23.6332 124.117 23.7713 124.152 23.9065C125.249 28.1206 126.43 24.8319 127.158 23.1562C127.256 23.0312 127.325 23.0487 127.337 23.2088L127.496 24.0216C127.812 25.9798 129.336 26.8176 129.993 25.1595C130.15 24.7643 130.368 24.3842 130.498 23.9841C130.578 23.789 130.743 23.6614 130.843 23.889C131.34 24.9119 131.848 26.7776 133.097 25.5872H133.092Z" fill="#971D3D"/>
<path d="M34.035 8.80826C33.0207 8.44062 31.8299 8.02798 30.6587 7.57531C30.3795 7.45284 30.1283 7.27226 29.9212 7.0451C29.829 6.96815 29.7591 6.86695 29.7191 6.75242C29.679 6.63789 29.6704 6.51438 29.6941 6.39521C29.7178 6.27604 29.7729 6.16573 29.8536 6.0762C29.9342 5.98667 30.0372 5.92131 30.1516 5.88717C30.4478 5.75927 30.7638 5.68561 31.0851 5.66959C33.6227 5.56016 36.1435 6.13828 38.3914 7.34522C38.6088 7.46769 38.8132 7.61268 39.0015 7.77788C39.1388 7.86767 39.2458 7.99831 39.308 8.15218C39.3703 8.30604 39.3847 8.47569 39.3494 8.6382C39.3007 8.79893 39.2033 8.93977 39.0712 9.04043C38.9392 9.1411 38.7792 9.1964 38.6144 9.19841C38.2549 9.26527 37.8886 9.28627 37.5241 9.26093C36.4313 9.13838 35.3312 8.97832 34.035 8.80826ZM38.6021 8.3731C36.0623 7.15946 33.294 6.52535 30.4897 6.5149C31.5702 7.74537 36.7817 9.09587 38.6021 8.3731Z" fill="#C4934C"/>
<path d="M39.9399 26.5949C39.8668 26.4869 39.7756 26.3929 39.6704 26.3173C39.5881 26.2774 39.5121 26.2251 39.445 26.1622C39.347 26.0997 39.2441 26.0347 39.1412 25.9597L39.053 25.9171C38.7126 25.7817 38.3523 25.7056 37.9872 25.692L37.2962 25.6721H37.2178C37.1198 25.6721 37.012 25.6721 36.8944 25.6721C36.5612 25.6721 36.1593 25.652 35.6693 25.617H35.3973L34.5765 24.1515L34.5643 24.1265C34.3977 23.8589 34.2262 23.5588 34.0473 23.2461C33.6537 22.5098 33.2022 21.8072 32.6973 21.1453C31.6119 19.8098 30.2741 19.0921 28.4928 20.6001L28.4095 20.6852C26.9125 22.6084 28.0542 24.219 29.1666 25.7846L29.3014 25.9772C29.4508 26.2097 29.4018 26.0597 29.2769 26.4048L28.4022 28.9933C24.1707 38.1767 20.5788 39.8974 17.1511 38.2468C14.4412 36.9488 11.7117 33.605 8.85974 30.1087C7.14464 27.9979 5.37073 25.2394 3.08719 23.7013C4.53982 23.4446 6.02275 23.4201 7.48276 23.6288C8.49747 23.778 9.49874 24.0106 10.4768 24.324H10.5013L12.7579 24.9093L12.8976 24.9268V24.9468C18.7388 26.0097 22.9089 24.5916 25.5845 21.9757L25.609 22.0032C25.9006 21.7331 26.2093 21.4305 26.5229 21.1203C27.6745 19.9924 28.8922 18.7945 30.3157 18.2643C30.6465 18.2042 30.9724 18.1442 31.2958 18.0942C31.5464 18.9801 32.1198 19.7345 32.8982 20.2025C33.0903 20.3048 33.3038 20.3583 33.5205 20.3583C33.7372 20.3583 33.9507 20.3048 34.1429 20.2025C34.492 20.0084 34.7806 19.7181 34.9759 19.3647C35.491 18.3839 35.7309 17.277 35.6693 16.166L35.7624 14.833V14.813C35.8016 13.51 35.5174 12.5121 35.0127 11.8118C34.66 11.3049 34.1482 10.936 33.5622 10.7665C32.9794 10.6058 32.3626 10.6294 31.7932 10.834C30.9038 11.1316 30.0021 11.8344 29.272 12.9248C29.3058 11.6458 29.1806 10.3677 28.8995 9.12083C27.8754 4.57913 24.7955 0.687677 20.0324 0.014925C20.0227 0.0128327 20.0127 0.0128327 20.003 0.014925C19.7985 -0.0144227 19.5921 -0.0269661 19.3856 -0.0225875C19.1816 -0.0167475 18.9784 0.00583105 18.778 0.0449351C17.7452 0.241851 16.8279 0.840933 16.22 1.71556C14.9949 3.44621 15.017 5.80459 15.5462 8.14047C16.0534 10.3913 17.0163 12.6097 17.7954 14.1977C17.8616 14.3453 17.9106 14.4478 17.9596 14.5504C18.2267 15.1156 18.5011 15.6933 18.332 16.2135C18.2555 16.2512 18.172 16.2717 18.087 16.2735C17.352 16.3085 16.3719 15.8134 15.4801 15.3532C15.0303 15.1105 14.5672 14.8942 14.0933 14.7054L14.0369 14.6854C13.6415 14.5537 13.2195 14.5287 12.8118 14.6129C12.4417 14.7347 12.0981 14.9283 11.7999 15.1831C11.5417 15.4064 11.3519 15.7008 11.2533 16.0312C11.1547 16.3616 11.1513 16.714 11.2437 17.0463C11.4265 17.7135 11.7492 18.3322 12.1895 18.8595C13.1255 20.0724 14.5588 21.2729 15.4825 21.9707C16.4062 22.6684 16.492 23.0336 16.2176 23.1986C15.6271 23.5438 14.4461 23.6763 13.689 23.7363H12.9539L10.766 23.1661C9.73812 22.8415 8.6871 22.599 7.62242 22.4408C5.49569 22.1407 4.02805 22.3308 1.97482 22.6709L1.82291 22.7084C1.20792 22.8085 0.597833 22.9835 -0.0245056 23.1261L1.51664 23.9789C1.94102 24.243 2.35006 24.5319 2.74172 24.8442C4.53278 26.6199 6.27238 28.7532 7.96789 30.8315C10.9081 34.4228 13.7012 37.8566 16.6537 39.2721C20.7038 41.2129 24.8249 39.4347 29.4386 29.4109L29.4631 29.3534L30.2814 26.9275L30.7127 27.1376L31.7515 27.6378L32.5233 28.0529C32.8002 28.188 33.0868 28.3205 33.3809 28.4431C33.4642 28.4681 33.6259 28.5456 33.964 28.6732C34.0865 28.7157 34.209 28.7607 34.3291 28.7982C34.5349 28.8708 34.7873 28.9533 35.0788 29.0333C35.194 29.0633 35.3238 29.0958 35.439 29.1233L35.7551 29.1984C36.2651 29.2932 36.7827 29.3393 37.3011 29.3359C37.4334 29.3359 37.5682 29.3359 37.7078 29.3359C38.007 29.3042 38.3035 29.2498 38.5948 29.1734C39.043 29.0782 39.4553 28.8543 39.7831 28.5281C40.0343 28.2663 40.1818 27.9189 40.1972 27.5527C40.2006 27.2162 40.1078 26.8859 39.9301 26.6024L39.9399 26.5949ZM34.0596 19.0121C33.9765 19.1764 33.8522 19.3154 33.6994 19.4147C33.6614 19.4343 33.6194 19.4445 33.5769 19.4445C33.5343 19.4445 33.4924 19.4343 33.4544 19.4147C33.1775 19.2771 32.8026 18.6519 32.4278 17.9141L32.3102 17.3539L32.2881 17.2564C33.1972 16.6888 33.9874 15.9434 34.6133 15.0631C34.7039 16.1285 34.7775 17.8866 34.0571 19.0121H34.0596ZM29.6983 14.3053C30.3402 13.1624 31.0287 12.167 32.1484 11.7843C32.5037 11.656 32.8881 11.6377 33.2535 11.7318C33.6171 11.8404 33.9373 12.0647 34.1674 12.3721C34.3442 12.6328 34.4791 12.9207 34.5667 13.2249C33.6136 15.0431 32.6507 15.9759 30.7421 16.7912C29.8894 17.2639 28.9975 17.5415 28.1767 18.1342C28.7329 16.8487 29.0809 15.5808 29.6958 14.3053H29.6983ZM16.2004 21.0753C15.3306 20.4201 13.9953 19.2972 13.123 18.1792C12.7884 17.7882 12.538 17.3298 12.388 16.8337C12.3473 16.7022 12.3446 16.5615 12.3802 16.4284C12.4159 16.2953 12.4883 16.1756 12.5889 16.0835C12.7583 15.9411 12.953 15.8333 13.1622 15.7658C13.3653 15.7359 13.5725 15.7618 13.7625 15.8409C14.1202 15.9784 14.5515 16.1985 14.9998 16.4286C16.0436 16.9613 17.1756 17.544 18.2169 17.469C18.2365 17.469 18.2585 17.469 18.2169 17.469C18.5425 17.4277 18.8531 17.3048 19.121 17.1113C19.195 17.0644 19.2531 16.9955 19.2876 16.9138C19.8266 15.8609 19.4003 14.963 18.9838 14.0802C18.9225 13.9501 18.8588 13.8176 18.8221 13.7351V13.7201C18.087 12.187 17.1339 10.0387 16.6537 7.90289C16.1882 5.85462 16.1465 3.82135 17.1437 2.40082C17.3971 2.02313 17.7352 1.71263 18.1298 1.49514C18.5244 1.27765 18.9642 1.15944 19.4126 1.15035C19.5583 1.14624 19.7041 1.15376 19.8487 1.17286H19.8732C24.1168 1.76558 26.8708 5.2819 27.797 9.38844C28.1802 11.0913 28.2475 12.8523 27.9954 14.5804C27.7543 16.2927 27.1516 17.9311 26.2289 19.3822C24.4697 22.0932 21.4364 24.0314 16.9747 24.134C17.9474 23.4962 18.1213 22.5259 16.2004 21.0753ZM32.9227 26.8275L32.8075 26.9025L31.2321 26.1297L30.9699 26.0022C30.7582 25.8607 30.5647 25.6927 30.3941 25.502C30.3623 25.4645 30.3353 25.4345 30.3182 25.4094L30.2643 25.3394C30.2153 25.2719 30.1687 25.2019 30.1173 25.1343C29.2695 23.9389 28.4022 22.7084 29.294 21.493C30.3525 20.6277 31.1733 21.0903 31.8495 21.9231C32.3137 22.5351 32.7291 23.1841 33.0918 23.8639C33.2804 24.194 33.4617 24.5116 33.6357 24.7892L34.1257 25.647L32.9227 26.8275ZM38.9868 27.7578C38.673 28.0506 38.2675 28.2199 37.8426 28.2355C37.0924 28.2822 36.3396 28.2165 35.6081 28.0404C35.1474 27.9454 34.7432 27.8379 34.4663 27.7703L34.1478 27.6428L33.719 27.3927L35.0641 26.4523L36.4191 26.5023L37.2791 26.5324L38.2175 26.5799L38.2518 26.5974C38.3588 26.6563 38.4619 26.7223 38.5605 26.795C38.7226 26.9089 38.8629 27.0522 38.9746 27.2176C39.0411 27.3119 39.0786 27.4242 39.0824 27.5402C39.0787 27.6225 39.0445 27.7003 38.9868 27.7578Z" fill="#C4934C"/>
<path d="M42.6743 18.6469C42.5801 18.4018 42.4315 18.1823 42.2402 18.0057C42.0489 17.8291 41.8201 17.7002 41.5717 17.629C40.795 17.4265 40.0061 17.8641 39.4793 18.2668C38.9383 18.6787 38.5076 19.2232 38.2273 19.8499C37.9806 20.3991 37.8536 20.9964 37.8549 21.6005C37.8664 21.9017 37.9124 22.2006 37.9921 22.4909C38.0413 22.671 38.0757 22.8551 38.095 23.0411C38.0938 23.4726 37.9611 23.893 37.7152 24.244C37.4702 24.6492 37.2252 25.0593 37.0022 25.462C36.9605 25.5295 36.9213 25.5995 36.8846 25.667C36.7229 25.9497 36.5685 26.2273 36.4166 26.5074L37.2766 26.5374L38.215 26.5849L38.2493 26.6024C38.3563 26.6613 38.4595 26.7273 38.558 26.8L38.6389 26.6449C38.7696 26.4032 38.9043 26.1606 39.0432 25.9171C39.1583 25.7071 39.2882 25.4995 39.3984 25.2969C39.4401 25.2269 39.4793 25.1569 39.521 25.0818C39.6472 24.8156 39.8209 24.5756 40.033 24.3741C40.2377 24.2198 40.4522 24.0794 40.675 23.9539C41.0027 23.7749 41.3122 23.5629 41.5987 23.3212C42.417 22.5909 42.8532 21.5705 42.9218 20.2125C42.9665 19.6778 42.8815 19.1401 42.6743 18.6469ZM41.8388 20.1475C41.7824 21.2079 41.4811 21.9482 40.8857 22.4784C40.6511 22.6691 40.3992 22.8366 40.1335 22.9785C39.8669 23.1271 39.6107 23.2942 39.3666 23.4787C39.2723 23.5543 39.1846 23.6379 39.1044 23.7288C39.1695 23.4744 39.1943 23.211 39.1779 22.9485C39.1555 22.695 39.1112 22.4439 39.0456 22.1982C38.9884 21.9918 38.9531 21.7797 38.9403 21.5655C38.9369 21.1202 39.0298 20.6796 39.2122 20.275C39.419 19.8203 39.734 19.4256 40.1286 19.1271C40.4216 18.8677 40.7846 18.7047 41.1699 18.6594C41.2152 18.6604 41.2603 18.6654 41.3047 18.6744C41.3586 18.6919 41.5325 18.7344 41.6893 19.0821C41.824 19.4219 41.8753 19.7903 41.8388 20.155V20.1475ZM35.6056 28.0404L35.4537 28.338C35.3312 28.5881 35.2087 28.8382 35.1009 29.0883C35.0592 29.1784 35.0176 29.2684 34.9784 29.3584C34.8167 29.7086 34.6525 30.0687 34.4883 30.4088C34.102 31.134 33.7552 31.8804 33.4495 32.6447C33.3245 32.9773 33.1506 33.6125 33.3956 34.1602C33.4687 34.314 33.5715 34.4511 33.6978 34.5632C33.8241 34.6754 33.9713 34.7604 34.1306 34.813C34.2422 34.8503 34.3587 34.8697 34.4761 34.8705C34.6476 34.8725 34.8165 34.8285 34.9661 34.7429C35.1508 34.6298 35.2996 34.4649 35.3949 34.2678C35.7903 33.4787 36.1246 32.6592 36.3946 31.8168C36.5612 31.3392 36.7204 30.8865 36.8993 30.4463C37.0496 30.0812 37.199 29.7277 37.3477 29.3859C37.5167 28.9908 37.6907 28.6107 37.8622 28.2455C37.1042 28.2912 36.3438 28.2221 35.6056 28.0404ZM35.8751 30.0087C35.6865 30.4763 35.515 30.964 35.3508 31.4367C35.0995 32.2236 34.7891 32.9895 34.4222 33.7276C34.4047 33.7167 34.3897 33.7023 34.3781 33.6851C34.3308 33.4639 34.3585 33.2329 34.4565 33.0298C34.7446 32.3041 35.0717 31.5953 35.4366 30.9065C35.6007 30.5839 35.7526 30.2538 35.8996 29.9311C35.8931 29.9575 35.8849 29.9834 35.8751 30.0087Z" fill="#C4934C"/>
</g>
<defs>
<clipPath id="clip0_15_6">
<rect width="203" height="40" fill="white"/>
</clipPath>
</defs>
</svg>
